<mxfile host="Electron" modified="2024-04-19T03:34:27.622Z" agent="Mozilla/5.0 (X11; Linux x86_64) AppleWebKit/537.36 (KHTML, like Gecko) draw.io/24.1.0 Chrome/120.0.6099.291 Electron/28.3.0 Safari/537.36" etag="zmvxpjDCYksbTW2xfViN" version="24.1.0" type="device">
  <diagram name="Page-1" id="ulZEaE2dIo4UEBuT3u88">
    <mxGraphModel dx="1050" dy="625" grid="1" gridSize="10" guides="1" tooltips="1" connect="1" arrows="1" fold="1" page="1" pageScale="1" pageWidth="827" pageHeight="1169" math="0" shadow="0">
      <root>
        <mxCell id="0" />
        <mxCell id="1" parent="0" />
        <mxCell id="PQ_tBbDUJJmbg7Y49v7_-5" style="edgeStyle=orthogonalEdgeStyle;rounded=0;orthogonalLoop=1;jettySize=auto;html=1;exitX=0.5;exitY=1;exitDx=0;exitDy=0;entryX=0.5;entryY=1;entryDx=0;entryDy=0;" edge="1" parent="1" source="PQ_tBbDUJJmbg7Y49v7_-1" target="PQ_tBbDUJJmbg7Y49v7_-2">
          <mxGeometry relative="1" as="geometry" />
        </mxCell>
        <mxCell id="PQ_tBbDUJJmbg7Y49v7_-1" value="&lt;font style=&quot;font-size: 16px;&quot;&gt;Offline Audio Analysis&lt;br&gt;&lt;i&gt;Python&lt;/i&gt;&lt;/font&gt;" style="rounded=0;whiteSpace=wrap;html=1;fillColor=#dae8fc;strokeColor=#6c8ebf;" vertex="1" parent="1">
          <mxGeometry x="80" y="150" width="180" height="90" as="geometry" />
        </mxCell>
        <mxCell id="PQ_tBbDUJJmbg7Y49v7_-8" style="edgeStyle=orthogonalEdgeStyle;rounded=0;orthogonalLoop=1;jettySize=auto;html=1;exitX=1;exitY=0.5;exitDx=0;exitDy=0;entryX=0.5;entryY=1;entryDx=0;entryDy=0;" edge="1" parent="1" source="PQ_tBbDUJJmbg7Y49v7_-2" target="PQ_tBbDUJJmbg7Y49v7_-6">
          <mxGeometry relative="1" as="geometry" />
        </mxCell>
        <mxCell id="PQ_tBbDUJJmbg7Y49v7_-2" value="&lt;font style=&quot;font-size: 14px;&quot;&gt;Cap&#39;n Proto Spectral Data&lt;/font&gt;" style="rounded=0;whiteSpace=wrap;html=1;fillColor=#fff2cc;strokeColor=#d6b656;" vertex="1" parent="1">
          <mxGeometry x="320" y="202.5" width="120" height="60" as="geometry" />
        </mxCell>
        <mxCell id="PQ_tBbDUJJmbg7Y49v7_-4" style="edgeStyle=orthogonalEdgeStyle;rounded=0;orthogonalLoop=1;jettySize=auto;html=1;exitX=0.5;exitY=0;exitDx=0;exitDy=0;entryX=0.5;entryY=0;entryDx=0;entryDy=0;" edge="1" parent="1" source="PQ_tBbDUJJmbg7Y49v7_-3" target="PQ_tBbDUJJmbg7Y49v7_-1">
          <mxGeometry relative="1" as="geometry" />
        </mxCell>
        <mxCell id="PQ_tBbDUJJmbg7Y49v7_-7" style="edgeStyle=orthogonalEdgeStyle;rounded=0;orthogonalLoop=1;jettySize=auto;html=1;exitX=1;exitY=0.5;exitDx=0;exitDy=0;entryX=0.5;entryY=0;entryDx=0;entryDy=0;" edge="1" parent="1" source="PQ_tBbDUJJmbg7Y49v7_-3" target="PQ_tBbDUJJmbg7Y49v7_-6">
          <mxGeometry relative="1" as="geometry" />
        </mxCell>
        <mxCell id="PQ_tBbDUJJmbg7Y49v7_-3" value="&lt;font style=&quot;font-size: 14px;&quot;&gt;FLAC Audio&lt;/font&gt;" style="rounded=0;whiteSpace=wrap;html=1;fillColor=#ffe6cc;strokeColor=#d79b00;" vertex="1" parent="1">
          <mxGeometry x="320" y="127.5" width="120" height="60" as="geometry" />
        </mxCell>
        <mxCell id="PQ_tBbDUJJmbg7Y49v7_-6" value="&lt;font style=&quot;font-size: 16px;&quot;&gt;Visualisation Application&lt;br&gt;&lt;i&gt;C++20&lt;/i&gt;&lt;/font&gt;" style="rounded=0;whiteSpace=wrap;html=1;fillColor=#d5e8d4;strokeColor=#82b366;" vertex="1" parent="1">
          <mxGeometry x="510" y="150" width="180" height="90" as="geometry" />
        </mxCell>
      </root>
    </mxGraphModel>
  </diagram>
</mxfile>
